<svg width="60" height="61" viewBox="0 0 60 61" xmlns="http://www.w3.org/2000/svg">
  <g fill-rule="nonzero" fill="none">
    <path d="M29.877 43.1a5.278 5.278 0 0 0-5.272 5.272 5.278 5.278 0 0 0 5.272 5.272 5.278 5.278 0 0 0 5.273-5.272 5.278 5.278 0 0 0-5.273-5.272zm0 7.03a1.76 1.76 0 0 1-1.757-1.758 1.76 1.76 0 0 1 1.757-1.758 1.76 1.76 0 0 1 1.758 1.758 1.76 1.76 0 0 1-1.758 1.757z" fill="#4BCBC1"/>
    <path d="M29.877 7.95a5.278 5.278 0 0 0-5.272 5.273 5.278 5.278 0 0 0 5.272 5.272 5.278 5.278 0 0 0 5.273-5.272 5.278 5.278 0 0 0-5.273-5.272zm0 7.03a1.76 1.76 0 0 1-1.757-1.757 1.76 1.76 0 0 1 1.757-1.757 1.76 1.76 0 0 1 1.758 1.757 1.76 1.76 0 0 1-1.758 1.757z" fill="#A8CFDE"/>
    <path d="M47.452 25.525a5.278 5.278 0 0 0-5.273 5.272 5.278 5.278 0 0 0 5.273 5.273 5.278 5.278 0 0 0 5.272-5.273 5.278 5.278 0 0 0-5.272-5.272zm0 7.03a1.76 1.76 0 0 1-1.758-1.758 1.76 1.76 0 0 1 1.758-1.757 1.76 1.76 0 0 1 1.757 1.757 1.76 1.76 0 0 1-1.757 1.758z" fill="#E3D30E"/>
    <path d="M17.294 17.444a5.279 5.279 0 0 0-7.203 1.93 5.278 5.278 0 0 0 1.93 7.202 5.278 5.278 0 0 0 7.202-1.93 5.27 5.27 0 0 0-1.93-7.202zm-1.115 5.445a1.76 1.76 0 0 1-2.4.643 1.756 1.756 0 1 1 2.4-.643z" fill="#5B84F2"/>
    <path d="M19.223 36.949a5.278 5.278 0 0 0-7.202-1.93 5.278 5.278 0 0 0-1.93 7.202 5.278 5.278 0 0 0 7.203 1.93 5.27 5.27 0 0 0 1.93-7.202zm-3.687 4.158a1.757 1.757 0 1 1-1.758-3.042 1.757 1.757 0 0 1 1.758 3.042z" fill="#FE6C59"/>
    <path d="M54.43 13.71l4.028-4.023a5.279 5.279 0 0 0 0-7.456 5.279 5.279 0 0 0-7.456 0l-4.026 4.022c-3.487-2.434-7.46-4.098-11.58-4.836-20.78-3.729-38.63 14.101-34.9 34.9C2.55 47.755 11.415 57.119 22.72 59.82c4.05.968 8.133 1.115 12.136.434a8.789 8.789 0 0 0 7.324-8.693v-3.19a5.278 5.278 0 0 1 5.273-5.272h3.189a8.788 8.788 0 0 0 8.693-7.324c.68-4 .534-8.083-.434-12.136a29.031 29.031 0 0 0-4.47-9.929zm-.943-8.994a1.76 1.76 0 0 1 2.486 0 1.76 1.76 0 0 1 0 2.485L44.093 19.068l-2.483-2.483L53.487 4.716zm2.382 30.47a5.282 5.282 0 0 1-5.228 4.399h-3.19c-4.845 0-8.787 3.942-8.787 8.787v3.189a5.283 5.283 0 0 1-4.398 5.228c-3.53.6-7.14.47-10.73-.388-9.915-2.368-17.783-10.69-19.58-20.705C.66 17.32 16.34 1.57 34.776 4.876c3.418.614 6.724 1.955 9.668 3.908L33.046 20.173l-3.192 1.064a8.806 8.806 0 0 0-5.838 6.613l-1.686 8.426a1.759 1.759 0 0 0 2.068 2.068l8.427-1.685a8.806 8.806 0 0 0 6.613-5.838l1.064-3.192c7.618-7.618 5.196-5.197 11.397-11.39a25.506 25.506 0 0 1 3.582 8.217c.858 3.59.988 7.2.388 10.73zM36.48 21.709l2.642-2.64 2.484 2.484-2.64 2.641-2.486-2.485zm.474 5.445l-.852 2.556a5.284 5.284 0 0 1-3.967 3.502l-5.842 1.169 1.168-5.842a5.284 5.284 0 0 1 3.503-3.968l2.556-.852 3.434 3.435z" fill="#152130"/>
  </g>
</svg>
