<svg width="33" height="33" viewBox="0 0 33 33" xmlns="http://www.w3.org/2000/svg">
  <g fill-rule="nonzero" fill="none">
    <path d="M9.705 4.601a2 2 0 0 0-2.288 1.663L4.728 23.238a2 2 0 0 0 1.663 2.288l16.974 2.688a2 2 0 0 0 2.288-1.662l2.689-16.974a2 2 0 0 0-1.663-2.288L9.705 4.6zm.626-3.95l16.974 2.688a6 6 0 0 1 4.988 6.865l-2.689 16.974a6 6 0 0 1-6.865 4.987L5.765 29.477a6 6 0 0 1-4.987-6.865L3.466 5.638A6 6 0 0 1 10.331.65z" fill="#152130"/>
    <path d="M20.967 13.8a2 2 0 1 1 2.462 3.151l-6.545 5.114a2 2 0 0 1-2.789-.32l-3.688-4.577a2 2 0 0 1 3.115-2.51l2.451 3.042 4.994-3.9z" fill="#6BD888"/>
  </g>
</svg>
