<svg width="255" height="122" viewBox="0 0 255 122" xmlns="http://www.w3.org/2000/svg">
  <g fill="none" fill-rule="evenodd">
    <ellipse fill="#F1F1F1" cx="127.5" cy="101" rx="127.5" ry="21"/>
    <path d="M124.542 65.753H67.73v10.518a8.751 8.751 0 0 0 6.653 8.504c9.831 2.414 26.064 4.71 43.59.146a8.772 8.772 0 0 0 6.569-8.484V65.753zM193.972 65.753H137.16v10.518a8.751 8.751 0 0 0 6.653 8.504c9.832 2.414 26.065 4.71 43.59.146a8.772 8.772 0 0 0 6.57-8.484V65.753z" fill="#A8CFDE"/>
    <path d="M60.645 42.537c27.381 5.177 84.102 10.734 143.768-.147 7.024-1.281 12.138-7.383 12.138-14.522V10.513h-167.9v17.532c0 7.084 5.033 13.177 11.994 14.492" fill="#EBDF46"/>
    <path d="M135.796 40.463v1.743c0 .144-.005.288-.011.43-.226 5.041-4.397 9.073-9.493 9.073s-9.266-4.032-9.493-9.072a9.488 9.488 0 0 1-.01-.431v-9.141c0-.586.495-1.082 1.082-1.082h16.842c.587 0 1.083.496 1.083 1.082v7.398zM44.508 9.373V4.602h163.569v18.63c0 1.06-.2 2.08-.563 3.025a8.483 8.483 0 0 1-2.166 3.188 8.385 8.385 0 0 1-4.1 2.074 353.518 353.518 0 0 1-5.74 1.058c-.722.127-1.443.253-2.166.376-17.105 2.903-34.905 4.651-53.215 5.236v-5.124a5.42 5.42 0 0 0-5.414-5.414h-16.842a5.42 5.42 0 0 0-5.414 5.414v5.129l-.173-.005c-23.805-.744-42.142-3.198-53.04-5.051a276.372 276.372 0 0 1-4.332-.774c-1.437-.27-2.663-.514-3.665-.721a8.414 8.414 0 0 1-4.011-2.07 8.529 8.529 0 0 1-2.166-3.188 8.35 8.35 0 0 1-.562-3.01V9.373zM16.33 16.075l23.846-1.994v9.294a12.74 12.74 0 0 0 2.728 7.86v44.502L16.33 59.755v-43.68zm72.853 88.512V93.57c.43.056.868.088 1.313.088h2.16c.445 0 .883-.032 1.314-.088v11.018h-4.787zm9.225-22.106v1.093a5.753 5.753 0 0 1-1.238 3.554 5.77 5.77 0 0 1-2.706 1.902c-.162.054-.327.1-.494.139-.423.1-.861.157-1.314.157h-2.16c-.453 0-.89-.058-1.313-.157a5.715 5.715 0 0 1-.495-.139 5.77 5.77 0 0 1-2.706-1.902 5.728 5.728 0 0 1-1.15-2.58 5.77 5.77 0 0 1-.088-.974V76.841c0-.587.496-1.083 1.083-1.083h11.498c.587 0 1.083.496 1.083 1.083v5.64zm13.388-19.418h6.02v8.518a6.56 6.56 0 0 1-.591 2.721 6.616 6.616 0 0 1-2.166 2.633 6.608 6.608 0 0 1-2.192 1.035 78.435 78.435 0 0 1-10.128 1.928V76.84a5.42 5.42 0 0 0-5.414-5.414H85.828a5.42 5.42 0 0 0-5.414 5.414v2.879a95.306 95.306 0 0 1-10.074-1.903 6.552 6.552 0 0 1-2.246-1.036 6.56 6.56 0 0 1-2.166-2.628 6.613 6.613 0 0 1-.591-2.737v-8.353H111.797zM68.094 99.098V81.648c.393.146.797.273 1.213.375a99.58 99.58 0 0 0 11.12 2.064 10.084 10.084 0 0 0 4.426 7.838v12.662h-11.27a5.496 5.496 0 0 1-5.49-5.49zm46.966-.315v.315a5.496 5.496 0 0 1-5.489 5.49h-11.27V91.924a10.086 10.086 0 0 0 4.413-7.66 82.798 82.798 0 0 0 11.245-2.104c.377-.098.743-.217 1.101-.352v16.974zm43.554 5.804V93.57c.43.056.868.088 1.313.088h2.16c.446 0 .884-.032 1.314-.088v11.018h-4.787zm-21.09-5.804V81.648c.393.146.798.273 1.214.375a99.556 99.556 0 0 0 11.12 2.064 10.085 10.085 0 0 0 4.425 7.838v12.662h-11.27a5.496 5.496 0 0 1-5.489-5.49v-.314zM167.84 82.48v1.093a5.753 5.753 0 0 1-1.238 3.554 5.77 5.77 0 0 1-2.705 1.902c-.162.054-.327.1-.495.139-.423.1-.861.157-1.314.157h-2.16c-.452 0-.89-.058-1.313-.157a5.737 5.737 0 0 1-.495-.139 5.769 5.769 0 0 1-3.944-5.456V76.841c0-.587.496-1.083 1.083-1.083h11.499c.587 0 1.082.496 1.082 1.083v5.64zm13.388-19.418h6.02v8.518c0 .963-.21 1.885-.59 2.721a6.62 6.62 0 0 1-2.166 2.633 6.609 6.609 0 0 1-2.193 1.035 78.435 78.435 0 0 1-10.127 1.928V76.84a5.42 5.42 0 0 0-5.414-5.414h-11.499a5.42 5.42 0 0 0-5.414 5.414v2.879a95.319 95.319 0 0 1-10.073-1.903 6.55 6.55 0 0 1-2.247-1.036 6.558 6.558 0 0 1-2.166-2.628 6.614 6.614 0 0 1-.591-2.737v-8.353H181.227zm3.264 35.72v.315a5.496 5.496 0 0 1-5.49 5.49h-11.269V91.924a10.085 10.085 0 0 0 4.412-7.66 82.79 82.79 0 0 0 11.246-2.104 10.96 10.96 0 0 0 1.1-.352v16.974zm20.857-15.387v1.774c0 5.118-4.163 9.281-9.281 9.281h-7.245V78.83a10.908 10.908 0 0 0 2.757-7.248V60.898c0-1.196-.97-2.166-2.166-2.166h-56.812c-1.196 0-2.165.97-2.165 2.166v10.518a10.91 10.91 0 0 0 2.757 7.267v15.768H119.39V78.83a10.907 10.907 0 0 0 2.757-7.248V60.898c0-1.196-.969-2.166-2.165-2.166H63.17c-1.196 0-2.165.97-2.165 2.166v10.518c0 2.764 1.026 5.321 2.756 7.267v15.768h-7.245c-5.117 0-9.281-4.163-9.281-9.28V34.791a12.69 12.69 0 0 0 3.133 1.092c1.204.25 2.725.55 4.543.885a261.476 261.476 0 0 0 4.331.76c11.127 1.863 29.393 4.254 52.906 4.989l.316.009c.172 7.48 6.306 13.514 13.827 13.514 7.524 0 13.66-6.038 13.827-13.521 18.3-.578 36.1-2.307 53.223-5.176.723-.122 1.443-.25 2.165-.376.722-.125 1.446-.247 2.166-.376 1.47-.265 2.935-.538 4.395-.82a12.686 12.686 0 0 0 3.28-1.115V83.396zm30.905-23.641L209.68 75.737V31.113a12.753 12.753 0 0 0 2.729-7.88V14.08l23.845 1.994v43.68zm2.346-47.83l-26.191-2.19V2.436c0-1.196-.97-2.166-2.166-2.166h-167.9c-1.196 0-2.165.97-2.165 2.166v7.3l-26.192 2.19A2.166 2.166 0 0 0 12 14.082V60.98c0 .76.398 1.465 1.05 1.856l29.855 17.956v4.38c0 7.505 6.107 13.612 13.612 13.612h7.245v.315c0 5.415 4.406 9.82 9.821 9.82h35.988c5.415 0 9.82-4.405 9.82-9.82v-.315h13.802v.315c0 5.415 4.405 9.82 9.82 9.82h35.988c5.415 0 9.821-4.405 9.821-9.82v-.315h7.245c7.506 0 13.612-6.107 13.612-13.613v-4.38l29.856-17.955a2.166 2.166 0 0 0 1.05-1.856V14.083a2.166 2.166 0 0 0-1.986-2.158z" fill="#152130"/>
  </g>
</svg>
