<svg width="100" height="83" viewBox="0 0 100 83" xmlns="http://www.w3.org/2000/svg">
  <g fill-rule="nonzero" fill="none">
    <path d="M17.06 4.852a6 6 0 0 0-6.595 5.34L4.76 64.48a6 6 0 0 0 5.34 6.594l72.937 7.666a6 6 0 0 0 6.594-5.34l5.706-54.289a6 6 0 0 0-5.34-6.594L17.059 4.852zm.418-3.978L90.414 8.54c5.493.577 9.477 5.498 8.9 10.99l-5.706 54.29c-.577 5.492-5.498 9.477-10.99 8.9L9.68 75.052c-5.493-.577-9.477-5.498-8.9-10.99l5.706-54.29c.577-5.492 5.498-9.477 10.99-8.9z" fill="#152130"/>
    <path fill="#152130" d="M5.96 28.638l.419-3.978 89.952 9.454-.418 3.979zM80.866 28.193a5.309 5.309 0 1 1 1.11-10.559 5.309 5.309 0 0 1-1.11 10.56zm.418-3.978a1.309 1.309 0 1 0 .274-2.603 1.309 1.309 0 0 0-.274 2.603z"/>
    <path d="M17.855 42.088a2 2 0 1 1 .419-3.979l63.705 6.696a2 2 0 1 1-.418 3.978l-63.706-6.695zM16.818 51.96a2 2 0 1 1 .418-3.978l63.705 6.695a2 2 0 1 1-.418 3.978L16.818 51.96zM15.78 61.832a2 2 0 1 1 .418-3.978l63.706 6.695a2 2 0 1 1-.419 3.978L15.78 61.832z" fill="#A8CFDE"/>
  </g>
</svg>
