<svg width="47" height="47" viewBox="0 0 47 47" xmlns="http://www.w3.org/2000/svg">
  <g fill-rule="nonzero" fill="none">
    <path d="M5.459 17.696a2 2 0 0 0-.685 2.744l12.922 21.505a2 2 0 0 0 2.744.684l21.505-12.921a2 2 0 0 0 .684-2.744L29.708 5.459a2 2 0 0 0-2.744-.685L5.459 17.696zm-2.06-3.429L24.903 1.346a6 6 0 0 1 8.234 2.053l12.921 21.504a6 6 0 0 1-2.053 8.234L22.5 46.058a6 6 0 0 1-8.233-2.053L1.346 22.5a6 6 0 0 1 2.053-8.233z" fill="#152130"/>
    <path d="M26.746 17.572a2 2 0 1 1 3.88.967l-2.64 10.589a2 2 0 0 1-2.394 1.464l-7.52-1.755a2 2 0 0 1 .91-3.895l5.6 1.307 2.164-8.677z" fill="#4BCBC1"/>
  </g>
</svg>
