<svg width="65" height="41" viewBox="0 0 65 41" xmlns="http://www.w3.org/2000/svg">
  <g fill="#152130" fill-rule="evenodd">
    <path d="M13.944 10.13l-.756 1.702 4.119.653-.163-1.849a69.914 69.914 0 0 1-.312-3.208 187.458 187.458 0 0 0-.273-3.263l-.118-.019-1.226 3.041a60.75 60.75 0 0 1-1.271 2.942zM5.402 18.8L14.507.438l5.244.83 2.985 20.277-4.622-.732-.458-4.78-5.896-.934-1.913 4.405-4.445-.704zm22.73 3.965c-.672-.107-1.261-.317-1.768-.63a3.952 3.952 0 0 1-1.228-1.166 4.443 4.443 0 0 1-.651-1.546 4.843 4.843 0 0 1-.034-1.798c.244-1.54 1.086-2.642 2.528-3.305 1.441-.663 3.637-.912 6.588-.748.064-.659-.047-1.208-.331-1.648-.285-.44-.832-.724-1.642-.852a5.315 5.315 0 0 0-1.938.058c-.66.138-1.378.358-2.155.66l-1.115-3.122a15.599 15.599 0 0 1 3.198-.921 10.243 10.243 0 0 1 3.388-.01c1.897.3 3.259 1.068 4.086 2.302.827 1.235 1.06 2.988.7 5.26l-1.332 8.415-3.556-.564-.057-1.558-.119-.018a9.52 9.52 0 0 1-2.198 1.033 5.092 5.092 0 0 1-2.364.158zm2.017-3.144c.493.078.935.037 1.325-.124.39-.16.814-.408 1.272-.74l.408-2.578c-1.575-.027-2.692.12-3.35.441-.659.321-1.033.768-1.124 1.341-.075.474.023.85.293 1.125.27.275.662.454 1.176.535z"/>
    <path d="M2.49 31.002a2 2 0 1 1 .626-3.95l59.955 9.495a2 2 0 1 1-.626 3.951L2.491 31.002z" fill-rule="nonzero"/>
  </g>
</svg>
