<svg width="50" height="60" viewBox="0 0 50 60" xmlns="http://www.w3.org/2000/svg">
  <g fill="#152130" fill-rule="nonzero">
    <path d="M44.41 6.077l-8.302.726-.145-1.66A5.006 5.006 0 0 0 30.546.598L17.264 1.76a5.006 5.006 0 0 0-4.546 5.417l.146 1.66-8.302.726A5.006 5.006 0 0 0 .017 14.98a5.008 5.008 0 0 0 3.846 4.433l6.089 35.49c.437 2.543 2.793 4.358 5.363 4.134l27.096-2.371c2.57-.225 4.575-2.422 4.564-5.002l-.166-36.008a5.008 5.008 0 0 0 3.018-5.034 5.006 5.006 0 0 0-5.417-4.545zm-28.371.81c-.08-.916.6-1.726 1.515-1.806l13.283-1.162c.915-.08 1.725.6 1.805 1.515l.146 1.66-16.604 1.452-.145-1.66zm27.603 44.791a1.676 1.676 0 0 1-1.522 1.667l-27.095 2.37a1.676 1.676 0 0 1-1.788-1.376l-6-34.972 36.24-3.17.165 35.481zm1.349-38.96L5.143 16.205c-.915.08-1.725-.6-1.806-1.515-.08-.916.6-1.726 1.516-1.806L44.7 9.398c.916-.08 1.726.6 1.806 1.515.08.915-.6 1.725-1.515 1.805z"/>
    <path d="M21.483 50.028L17.48 23.387a1.667 1.667 0 0 0-3.296.495l4.004 26.642a1.667 1.667 0 1 0 3.296-.496zM25.648 21.103a1.667 1.667 0 0 0-1.515 1.805l2.343 26.787a1.667 1.667 0 0 0 3.321-.29l-2.343-26.787a1.667 1.667 0 0 0-1.806-1.515zM35.713 20.225a1.668 1.668 0 0 0-1.624 1.709l.683 26.932a1.667 1.667 0 0 0 3.332-.085l-.683-26.932a1.667 1.667 0 0 0-1.708-1.624z"/>
  </g>
</svg>
