<svg width="43" height="48" viewBox="0 0 43 48" xmlns="http://www.w3.org/2000/svg">
  <g fill="none" fill-rule="evenodd">
    <path d="M19.267 39.773L7.53 43.302a1 1 0 0 1-1.223-1.312l4.338-11.462-6.982-10.073a1 1 0 0 1 .87-1.568l12.241.584 7.422-9.754a1 1 0 0 1 1.76.343l3.228 11.823 11.57 4.044a1 1 0 0 1 .218 1.78l-10.248 6.724-.27 12.253a1 1 0 0 1-1.626.758l-9.561-7.669z" fill="#EBDF46"/>
    <path d="M18.595 30.938l8.8 7.058.25-11.278 9.433-6.189-10.65-3.722-2.97-10.884-6.832 8.978-11.268-.538 6.427 9.272-3.993 10.55 10.803-3.247zm-.862 4.436l-10.73 3.225a3 3 0 0 1-3.67-3.935L7.3 24.185.916 14.977a3 3 0 0 1 2.609-4.706l11.191.535 6.785-8.917a3 3 0 0 1 5.282 1.026l2.95 10.81 10.577 3.697a3 3 0 0 1 .656 5.34l-9.368 6.146-.248 11.202a3 3 0 0 1-4.877 2.274l-8.74-7.01z" fill="#152130" fill-rule="nonzero"/>
  </g>
</svg>
