<svg width="40" height="40" viewBox="0 0 40 40" xmlns="http://www.w3.org/2000/svg">
  <g fill-rule="nonzero" fill="none">
    <path d="M6.12 6.411a2 2 0 0 0-1.855 2.135l1.75 25.027a2 2 0 0 0 2.134 1.855l25.027-1.75a2 2 0 0 0 1.856-2.134l-1.75-25.027a2 2 0 0 0-2.135-1.856L6.12 6.411zm-.279-3.99L30.868.67a6 6 0 0 1 6.404 5.567l1.75 25.027a6 6 0 0 1-5.567 6.404l-25.027 1.75a6 6 0 0 1-6.404-5.567L.274 8.825A6 6 0 0 1 5.841 2.42z" fill="#152130"/>
    <path d="M24.868 15.538a2 2 0 1 1 3.236 2.351l-6.414 8.829a2 2 0 0 1-2.77.46l-6.314-4.444a2 2 0 0 1 2.302-3.271l4.703 3.31 5.257-7.235z" fill="#5B84F2"/>
  </g>
</svg>
