<svg width="108" height="44" viewBox="0 0 108 44" xmlns="http://www.w3.org/2000/svg">
  <g fill-rule="nonzero" fill="none">
    <path d="M6.16 12.488a2 2 0 0 0-1.819 2.166L6.335 37.45a2 2 0 0 0 2.167 1.819l93.115-8.147a2 2 0 0 0 1.818-2.167L101.441 6.16a2 2 0 0 0-2.167-1.818L6.159 12.488zm-.35-3.985L98.925.356a6 6 0 0 1 6.5 5.454l1.995 22.796a6 6 0 0 1-5.454 6.5L8.85 43.252a6 6 0 0 1-6.5-5.454L.356 15.003a6 6 0 0 1 5.454-6.5z" fill="#152130"/>
    <g fill="#FE6C59">
      <path d="M12.488 22.255a2 2 0 1 1 2.571-3.064l10.345 8.68a2 2 0 1 1-2.571 3.064l-10.345-8.68z"/>
      <path d="M21.754 18.605a2 2 0 1 1 3.064 2.571l-8.68 10.345a2 2 0 1 1-3.064-2.571l8.68-10.345z"/>
    </g>
    <path d="M36.482 25.335a2 2 0 1 1-.348-3.985l52.769-4.617a2 2 0 1 1 .348 3.985l-52.769 4.617z" fill="#152130"/>
  </g>
</svg>
