<svg width="72" height="60" viewBox="0 0 72 60" xmlns="http://www.w3.org/2000/svg">
  <g fill-rule="nonzero" fill="none">
    <path d="M9.804 10.717a6 6 0 0 0-5.106 6.777l4.67 33.228a6 6 0 0 0 6.776 5.107l46.264-6.502a6 6 0 0 0 5.107-6.777l-4.67-33.228a6 6 0 0 0-6.777-5.107L9.804 10.717zm-.556-3.961L55.51.254c5.47-.769 10.526 3.042 11.295 8.51l4.67 33.23c.768 5.469-3.042 10.525-8.511 11.294L16.7 59.79c-5.47.769-10.526-3.042-11.294-8.511L.737 18.05c-.77-5.469 3.041-10.526 8.51-11.294z" fill="#152130"/>
    <path fill="#152130" d="M3.923 29.136l-.556-3.96 62.88-8.838.556 3.961z"/>
    <path d="M14.31 39.278a2 2 0 1 1-.557-3.961l44.532-6.259a2 2 0 1 1 .557 3.961L14.31 39.278zM15.25 48.08a2 2 0 1 1-.557-3.962l44.532-6.258a2 2 0 1 1 .556 3.96L15.25 48.08z" fill="#E3D30E"/>
  </g>
</svg>
