
<svg xmlns="http://www.w3.org/2000/svg" viewBox="0 0 151.59 149.12" class="dp-icon"><title>De Persgroep logo</title><path d="M142.21,19.95C128.06.9,101.44-4.63,75.83,3.89l0,21.6-.05.16a80.67,80.67,0,0,0-43.89,16.2C.78,65-9.29,104.07,9.38,129.18c14.14,19,40.75,24.57,66.33,16.07V145l.13.05V123.52c14.63-.7,30.19-6.07,43.87-16.24C150.82,84.16,160.88,45.05,142.21,19.95ZM45.36,123.24A33.35,33.35,0,0,1,31.3,114C15.4,96,22.43,63.79,47,42A75.6,75.6,0,0,1,75.7,25.88ZM104.61,107a75.68,75.68,0,0,1-28.66,16.13l9.28-29.78,21.06-67.56a33.46,33.46,0,0,1,14,9.28C136.21,53,129.18,85.25,104.61,107Z" /></svg>
