<svg width="37" height="37" viewBox="0 0 37 37" xmlns="http://www.w3.org/2000/svg">
  <g fill="none" fill-rule="evenodd">
    <path d="M24.765 30.222l-6.984 6.453a1 1 0 0 1-1.674-.643l-.873-9.469-8.295-4.648a1 1 0 0 1 .094-1.791l8.735-3.756 1.858-9.326a1 1 0 0 1 1.732-.464l6.272 7.147 9.443-1.115a1 1 0 0 1 .977 1.504l-4.86 8.174 3.979 8.636a1 1 0 0 1-1.129 1.394l-9.275-2.096z" fill="#E4F1F6"/>
    <path d="M13.976 29.558l6.063-6.006 8.384 1.589-3.838-7.622 4.102-7.483-8.435 1.295-5.85-6.214-1.374 8.423-7.717 3.643 7.585 3.91 1.08 8.465zm7.384-1.685l-6.008 5.952a3 3 0 0 1-5.087-1.751l-1.07-8.39-7.518-3.874a3 3 0 0 1 .094-5.38l7.648-3.61 1.362-8.347A3 3 0 0 1 15.927.9l5.796 6.159 8.36-1.284a3 3 0 0 1 3.085 4.407l-4.065 7.416 3.804 7.553a3 3 0 0 1-3.238 4.297l-8.31-1.575z" fill="#152130" fill-rule="nonzero"/>
  </g>
</svg>
